<svg version="1.1" xmlns="http://www.w3.org/2000/svg" xlink="http://www.w3.org/1999/xlink" x="0px" y="0px" viewBox="0 0 512 512" enable-background="new 0 0 512 512" space="preserve">
<path id="info-4-icon" d="M255.998,50.001C142.229,50.001,50,142.229,50,255.999c0,113.771,92.229,206,205.998,206
	c113.771,0,206.002-92.229,206.002-206C462,142.229,369.77,50.001,255.998,50.001z M261.051,122.781
	c18.491,0,33.479,14.991,33.479,33.479c0,18.49-14.987,33.48-33.479,33.48c-18.489,0-33.479-14.99-33.479-33.48
	C227.572,137.772,242.562,122.781,261.051,122.781z M320.577,375.537H208.452v-14.68l14.043-5.177
	c7.86-2.898,13.082-10.388,13.082-18.766V257.75c0-8.378-5.222-15.868-13.082-18.766l-14.043-5.177v-15.002h84.973V336.91
	c0,8.38,5.225,15.871,13.088,18.768l14.064,5.18V375.537z"></path>
</svg>
