<svg xmlns="http://www.w3.org/2000/svg" xmlns:xlink="http://www.w3.org/1999/xlink" version="1.1" id="Layer_1" x="0px" y="0px" width="100px" height="100px" viewBox="0 0 100 100" enable-background="new 0 0 100 100" xml:space="preserve">
<path fill="#000000" d="M83.652,10.501c-5.7-2.106-11.986,0.472-14.641,5.788L51.357,21.52c-0.75-0.498-1.561-0.927-2.439-1.252  c-6.113-2.258-12.901,0.868-15.16,6.981c-2.227,6.027,0.785,12.699,6.726,15.052l5.5,17.864c-0.239,0.433-0.456,0.883-0.644,1.354  l-19.675,5.883c-0.664-0.409-1.377-0.762-2.138-1.043c-6.114-2.258-12.901,0.867-15.161,6.979  C6.108,79.453,9.233,86.241,15.348,88.5c5.944,2.195,12.514-0.706,14.95-6.489l19.988-5.979c0.603,0.354,1.237,0.671,1.917,0.922  c6.113,2.259,12.9-0.867,15.16-6.979c2.259-6.113-0.866-12.902-6.98-15.16c-0.005-0.002-0.011-0.004-0.016-0.006l-5.383-17.475  c0.203-0.344,0.39-0.702,0.559-1.071l17.17-5.089c0.835,0.595,1.752,1.101,2.76,1.473c6.112,2.258,12.902-0.868,15.16-6.981  C92.893,19.548,89.766,12.759,83.652,10.501z"/>
</svg>