<?xml version="1.0" encoding="UTF-8" standalone="no"?>
<svg
   xmlns:dc="http://purl.org/dc/elements/1.1/"
   xmlns:cc="http://creativecommons.org/ns#"
   xmlns:rdf="http://www.w3.org/1999/02/22-rdf-syntax-ns#"
   xmlns:svg="http://www.w3.org/2000/svg"
   xmlns="http://www.w3.org/2000/svg"
   xmlns:sodipodi="http://sodipodi.sourceforge.net/DTD/sodipodi-0.dtd"
   xmlns:inkscape="http://www.inkscape.org/namespaces/inkscape"
   version="1.1"
   xlink="http://www.w3.org/1999/xlink"
   x="0px"
   y="0px"
   viewBox="0 0 103 103"
   enable-background="new 0 0 512 512"
   space="preserve"
   id="svg2"
   inkscape:version="0.48.3.1 r9886"
   width="100%"
   height="100%"
   sodipodi:docname="tag.svg">
  <metadata
     id="metadata9">
    <rdf:RDF>
      <cc:Work
         rdf:about="">
        <dc:format>image/svg+xml</dc:format>
        <dc:type
           rdf:resource="http://purl.org/dc/dcmitype/StillImage" />
      </cc:Work>
    </rdf:RDF>
  </metadata>
  <defs
     id="defs7" />
  <sodipodi:namedview
     pagecolor="#ffffff"
     bordercolor="#666666"
     borderopacity="1"
     objecttolerance="10"
     gridtolerance="10"
     guidetolerance="10"
     inkscape:pageopacity="0"
     inkscape:pageshadow="2"
     inkscape:window-width="1096"
     inkscape:window-height="673"
     id="namedview5"
     showgrid="false"
     fit-margin-top="0"
     fit-margin-left="0"
     fit-margin-right="0"
     fit-margin-bottom="0"
     inkscape:zoom="1.84375"
     inkscape:cx="125.26264"
     inkscape:cy="20.576303"
     inkscape:window-x="0"
     inkscape:window-y="0"
     inkscape:window-maximized="0"
     inkscape:current-layer="svg2" />
  <path
     id="tag-6-icon"
     d="m 66.159718,24.893169 h -15.2505 C 39.398468,5.1894195 9.6422176,5.0051695 2.1737186,17.182919 c -5.752751,9.38 0.26325,21.722 13.9089994,21.7215 2.5e-4,0 0.002,0 0.002,0 6.08875,-5e-4 11.667,-3.0615 20.198,-1.0775 v 16.943 l 36.81925,36.84025 29.898002,-29.89825 -36.840252,-36.81875 z m -50.07575,7.642 c -10e-4,0 -10e-4,0 -0.002,0 -8.5695004,0 -11.7472494,-6.868 -8.3930004,-12.16775 4.6705004,-7.3795 25.1592504,-8.374 35.5040004,4.52575 h -6.91075 v 6.4285 c -9.37425,-1.71275 -15.33225,1.21275 -20.1985,1.2135 z m 39.5135,11.3485 c -3.50575,3.50525 -9.46825,1.6905 -10.49725,-3.09075 5.101,0.39875 8.1635,-3.10125 7.705,-7.33325 4.59575,1.2295 6.19925,7.01675 2.79225,10.424 z"
     inkscape:connector-curvature="0" />
</svg>
