<svg xmlns="http://www.w3.org/2000/svg" xmlns:xlink="http://www.w3.org/1999/xlink" version="1.1" id="Layer_1" x="0px" y="0px" width="87.5px" height="100px" viewBox="0 0 87.5 100" style="enable-background:new 0 0 87.5 100;" xml:space="preserve">
<path style="fill:#010101;" d="M62.5,0v12.109c0,5.005-1.953,9.717-5.48,13.244L21.655,60.522  c-5.591,5.579-8.667,12.903-9.009,20.728H0L18.75,100L37.5,81.25H25.135c0.329-4.492,2.136-8.667,5.346-11.89l35.364-35.156  C71.753,28.296,75,20.459,75,12.109V0H62.5z"/>
<path style="fill:#010101;" d="M74.854,81.25c-0.342-7.824-3.43-15.148-9.021-20.752l-6.97-6.922L50,62.391l7.007,6.97  c3.223,3.21,5.029,7.397,5.358,11.89H50L68.75,100L87.5,81.25H74.854z"/>
</svg>